<?xml version="1.0" encoding="UTF-8"?>
<svg version="1.1" xmlns="http://www.w3.org/2000/svg" width="256" height="256">
<path d="M0 0 C3.21291333 1.81385479 5.44264691 4.12762124 7.4375 7.25 C9.26572208 16.1879746 5.26493737 23.50856254 1.4375 31.3125 C0.23406646 33.82358947 -0.95879793 36.33966753 -2.15234375 38.85546875 C-2.46606934 39.51369629 -2.77979492 40.17192383 -3.10302734 40.85009766 C-6.75836144 48.5426111 -10.18803281 56.33316951 -13.625 64.125 C-20.26186182 79.13581535 -27.00033782 94.09880889 -33.77612305 109.04736328 C-34.57864685 110.81801864 -35.38113706 112.58868923 -36.18359375 114.359375 C-36.58120407 115.23669281 -36.97881439 116.11401062 -37.38847351 117.01791382 C-40.98628581 124.96083279 -44.56109026 132.91400035 -48.13232422 140.86889648 C-50.73189415 146.65843669 -53.34258779 152.44294506 -55.95391846 158.22718811 C-57.8967595 162.53551965 -59.82277494 166.85067106 -61.72914124 171.17526245 C-62.55505088 173.04440849 -63.38750589 174.91046698 -64.22290039 176.77539062 C-65.20181259 178.96264513 -66.16950363 181.15497698 -67.12280273 183.35351562 C-69.66025222 188.97300533 -71.79239511 192.59638273 -77 196 C-81.24169228 197.23394684 -83.45360817 197.16669581 -87.6875 195.875 C-91.25479165 193.85577831 -92.95466622 192.54000078 -95 189 C-96.36239936 182.62860535 -95.73245768 178.89315596 -93.0390625 173.046875 C-92.71934479 172.31442566 -92.39962708 171.58197632 -92.07022095 170.82733154 C-91.0662352 168.54230998 -90.03572207 166.2707871 -89 164 C-88.37532698 162.60510843 -87.75128607 161.20993358 -87.12792969 159.81445312 C-85.56642014 156.34029411 -83.97799175 152.87917194 -82.37921143 149.42202759 C-80.6151065 145.60641221 -78.86302505 141.78527247 -77.109375 137.96484375 C-76.58115646 136.81510323 -76.58115646 136.81510323 -76.04226685 135.64213562 C-72.86313816 128.7166891 -69.73438522 121.7695697 -66.625 114.8125 C-66.1101001 113.66080322 -65.5952002 112.50910645 -65.06469727 111.32250977 C-64.25498927 109.51139524 -63.4452839 107.70027954 -62.63575745 105.88908386 C-58.11952871 95.78888996 -53.57080697 85.70325858 -49.02856445 75.61474609 C-48.25862109 73.90462474 -47.48868297 72.19450103 -46.71875 70.484375 C-46.1417762 69.20290085 -46.1417762 69.20290085 -45.55314636 67.89553833 C-43.13994297 62.53490593 -40.72938833 57.17309067 -38.32087708 51.81034851 C-36.70650155 48.21590841 -35.0913496 44.62181742 -33.47616577 41.02774048 C-32.71424869 39.33176514 -31.95269888 37.63562475 -31.19155884 35.93930054 C-29.45259166 32.06390604 -27.70886225 28.1908941 -25.95166016 24.32373047 C-24.65119617 21.45968518 -23.38378898 18.58409526 -22.13818359 15.69580078 C-21.544177 14.35048362 -20.94994991 13.00526378 -20.35546875 11.66015625 C-19.85039795 10.49234619 -19.34532715 9.32453613 -18.82495117 8.12133789 C-14.50651007 0.73521488 -8.4715952 -2.33809622 0 0 Z " fill="#13B7A5" transform="translate(172,30)"/>
<path d="M0 0 C4.38410756 2.19205378 7.13092657 4.43115383 9 9 C9.68684806 15.18163252 8.81583227 18.08043442 5 23 C2.34191106 25.91929606 -0.45548675 28.68862846 -3.265625 31.4609375 C-4.05902283 32.25150543 -4.85242065 33.04207336 -5.66986084 33.8565979 C-8.19189761 36.36748676 -10.72081739 38.87131124 -13.25 41.375 C-14.96660562 43.08156888 -16.68275659 44.78859522 -18.3984375 46.49609375 C-22.5937074 50.66937477 -26.79464244 54.83688568 -31 59 C-29.60174295 62.16617831 -27.96175508 64.27454463 -25.5 66.6953125 C-24.42878906 67.75661377 -24.42878906 67.75661377 -23.3359375 68.83935547 C-22.56507812 69.59361816 -21.79421875 70.34788086 -21 71.125 C-20.20851562 71.90891113 -19.41703125 72.69282227 -18.6015625 73.50048828 C-16.07244456 76.00517271 -13.53703011 78.50333173 -11 81 C-7.66094232 84.28593631 -4.32848745 87.57836086 -1 90.875 C-0.22914062 91.6292627 0.54171875 92.38352539 1.3359375 93.16064453 C2.40714844 94.2219458 2.40714844 94.2219458 3.5 95.3046875 C4.1290625 95.92327637 4.758125 96.54186523 5.40625 97.17919922 C8.64093403 100.87470681 9.45489082 104.01490882 9.31640625 108.97265625 C8.63254344 113.3544439 6.07151738 116.08155653 2.8125 118.875 C-1.11565579 120.44626232 -4.83977171 120.86756813 -9 120 C-13.12553116 117.47544639 -16.54642867 114.70569313 -19.96386719 111.29492188 C-20.89793396 110.36715942 -21.83200073 109.43939697 -22.79437256 108.48352051 C-23.79546229 107.47885161 -24.79629026 106.47392183 -25.796875 105.46875 C-26.83696826 104.43000573 -27.87735812 103.39155835 -28.91802979 102.35339355 C-31.08973086 100.18463009 -33.25780091 98.01231829 -35.42333984 95.83740234 C-38.19618894 93.05313102 -40.97795951 90.2779738 -43.76249313 87.50539398 C-45.90910174 85.36601653 -48.05091908 83.22189341 -50.19132233 81.0763092 C-51.21529707 80.05100292 -52.24075236 79.02717299 -53.26772308 78.00486755 C-54.70122994 76.57644948 -56.12763291 75.14091292 -57.55371094 73.70507812 C-58.36612244 72.89107544 -59.17853394 72.07707275 -60.01556396 71.23840332 C-63.19948178 67.64700905 -64.30056708 64.90359368 -64.375 60.125 C-64.40335937 59.30257812 -64.43171875 58.48015625 -64.4609375 57.6328125 C-63.4806262 52.0334073 -59.19037927 47.93920492 -55.29492188 44.03613281 C-54.36715942 43.10206604 -53.43939697 42.16799927 -52.48352051 41.20562744 C-51.47885161 40.20453771 -50.47392183 39.20370974 -49.46875 38.203125 C-48.43000573 37.16303174 -47.39155835 36.12264188 -46.35339355 35.08197021 C-44.18463009 32.91026914 -42.01231829 30.74219909 -39.83740234 28.57666016 C-37.05313102 25.80381106 -34.2779738 23.02204049 -31.50539398 20.23750687 C-29.36601653 18.09089826 -27.22189341 15.94908092 -25.0763092 13.80867767 C-24.05100292 12.78470293 -23.02717299 11.75924764 -22.00486755 10.73227692 C-20.57644948 9.29877006 -19.14091292 7.87236709 -17.70507812 6.44628906 C-16.89107544 5.63387756 -16.07707275 4.82146606 -15.23840332 3.98443604 C-10.50059337 -0.21582614 -6.17094787 -0.86778954 0 0 Z " fill="#14B7A6" transform="translate(64,68)"/>
<path d="M0 0 C4.03368509 2.05142948 6.95737576 4.70926484 10.14160156 7.89868164 C10.62840393 8.38358566 11.1152063 8.86848969 11.61676025 9.36808777 C13.21296607 10.96061032 14.80189362 12.56017977 16.390625 14.16015625 C17.50173036 15.27245455 18.61320655 16.38438252 19.72503662 17.49595642 C22.0479954 19.82047565 24.36756633 22.14830523 26.68457031 24.47875977 C29.65766655 27.46889469 32.63735281 30.45235493 35.61935806 33.43360233 C37.91184566 35.72636144 40.20172104 38.02171418 42.49071503 40.31796074 C43.58896556 41.41939673 44.68782571 42.52022522 45.78730011 43.62043953 C47.31939577 45.15469724 48.84815706 46.69219846 50.37597656 48.23071289 C51.24691956 49.10546768 52.11786255 49.98022247 53.01519775 50.88148499 C56.4944952 54.59517682 56.66553599 57.90018202 56.56947327 62.87635803 C55.88327167 66.64027154 54.73149385 67.99150106 52.09936523 70.72827148 C51.27935028 71.59112762 50.45933533 72.45398376 49.61447144 73.34298706 C48.32030807 74.65820847 48.32030807 74.65820847 47 76 C46.18902863 76.83580597 45.37805725 77.67161194 44.54251099 78.53274536 C41.9748948 81.15641766 39.38390593 83.75483155 36.78515625 86.34765625 C35.83859473 87.29489368 34.89218149 88.24227932 33.94590759 89.18980408 C31.98532844 91.15184095 30.02299386 93.11209931 28.05932617 95.07104492 C25.54188794 97.58272336 23.02905222 100.09895165 20.51746464 102.61647892 C18.10911539 105.02929589 15.69698033 107.43831262 13.28515625 109.84765625 C11.93213158 111.20371727 11.93213158 111.20371727 10.55177307 112.58717346 C9.72008102 113.41571335 8.88838898 114.24425323 8.03149414 115.09790039 C6.93303917 116.19516197 6.93303917 116.19516197 5.81239319 117.31459045 C2.18149935 120.69108909 -1.37719102 120.44701542 -6.16015625 120.421875 C-10.59578305 119.76293732 -13.29621655 117.49451257 -16 114 C-17.22397775 110.32806676 -17.72596231 106.80297686 -17 103 C-13.74138574 97.36631167 -9.34503536 93.08765558 -4.734375 88.5390625 C-3.94097717 87.74849457 -3.14757935 86.95792664 -2.33013916 86.1434021 C0.19189761 83.63251324 2.72081739 81.12868876 5.25 78.625 C6.96660562 76.91843112 8.68275659 75.21140478 10.3984375 73.50390625 C14.5937074 69.33062523 18.79464244 65.16311432 23 61 C18.80467283 55.98000885 14.41545633 51.31638941 9.73828125 46.74609375 C8.35843801 45.38375311 6.97888936 44.02111403 5.59960938 42.65820312 C3.45009582 40.53970282 1.29833913 38.42364168 -0.85864258 36.31274414 C-2.95814985 34.25565116 -5.04802038 32.18915315 -7.13671875 30.12109375 C-7.78049973 29.49593369 -8.4242807 28.87077362 -9.08757019 28.22666931 C-13.05179303 24.28522917 -16.2799428 20.52892898 -17.43359375 14.875 C-17.44409494 9.83442926 -16.4466944 6.90020682 -13 3 C-8.62653385 0.0843559 -5.21334006 -0.56872801 0 0 Z " fill="#13B7A6" transform="translate(200,72)"/>
</svg>
